<svg version="1.1" xmlns="http://www.w3.org/2000/svg" xmlns:xlink="http://www.w3.org/1999/xlink" width="723" height="555"><defs/><g><g transform="translate(-190,-118) scale(1,1)"><rect fill="#C0C0C0" stroke="none" x="207" y="135" width="281.2" height="15" opacity="0.2"/></g><g transform="translate(-190,-118) scale(1,1)"><rect fill="#C0C0C0" stroke="none" x="207" y="149" width="703" height="521" opacity="0.2"/></g><g transform="translate(-190,-118) scale(1,1)"><rect fill="#ffffff" stroke="none" x="200" y="143" width="703" height="520"/></g><g transform="translate(-190,-118) scale(1,1)"><path fill="none" stroke="#000000" d="M 200 143 L 903 143 L 903 663 L 200 663 L 200 143 Z Z" stroke-miterlimit="10"/></g><g transform="translate(-190,-118) scale(1,1)"><rect fill="#ffffff" stroke="none" x="200" y="128" width="281.2" height="15"/></g><g transform="translate(-190,-118) scale(1,1)"><path fill="none" stroke="#000000" d="M 200 128 L 481.2 128 L 481.2 143 L 200 143 L 200 128 Z Z" stroke-miterlimit="10"/></g><g transform="translate(-190,-118) scale(1,1)"><rect fill="#ffffff" stroke="none" x="200" y="142" width="703" height="521"/></g><g transform="translate(-190,-118) scale(1,1)"><path fill="none" stroke="#000000" d="M 200 142 L 903 142 L 903 663 L 200 663 L 200 142 Z Z" stroke-miterlimit="10"/></g><g transform="translate(-190,-118) scale(1,1)"><g><path fill="none" stroke="none"/><text fill="#000000" stroke="none" font-family="Arial" font-size="13px" font-style="normal" font-weight="bold" text-decoration="none" x="549.694091796875" y="162.5">.</text></g></g><g transform="translate(-190,-118) scale(1,1)"><rect fill="#C0C0C0" stroke="none" x="263" y="167" width="273.84326171875" height="175" opacity="0.2"/></g><g transform="translate(-190,-118) scale(1,1)"><rect fill="#ffffff" stroke="none" x="256" y="160" width="273.84326171875" height="175"/></g><g transform="translate(-190,-118) scale(1,1)"><path fill="none" stroke="#000000" d="M 256 160 L 529.84326171875 160 L 529.84326171875 335 L 256 335 L 256 160 Z Z" stroke-miterlimit="10"/></g><g transform="translate(-190,-118) scale(1,1)"><path fill="none" stroke="#000000" d="M 256 185 L 529.84326171875 185" stroke-miterlimit="10"/></g><g transform="translate(-190,-118) scale(1,1)"><path fill="none" stroke="#000000" d="M 256 298 L 529.84326171875 298" stroke-miterlimit="10"/></g><g transform="translate(-190,-118) scale(1,1)"><g><path fill="none" stroke="none"/><text fill="#000000" stroke="none" font-family="Arial" font-size="13px" font-style="normal" font-weight="bold" text-decoration="none" x="379.197998046875" y="179.5">User</text></g></g><g transform="translate(-190,-118) scale(1,1)"><g><path fill="none" stroke="none"/><text fill="#000000" stroke="none" font-family="Arial" font-size="13px" font-style="normal" font-weight="normal" text-decoration="none" x="261" y="202.5">+ID: int {id}</text></g></g><g transform="translate(-190,-118) scale(1,1)"><g><path fill="none" stroke="none"/><text fill="#000000" stroke="none" font-family="Arial" font-size="13px" font-style="normal" font-weight="normal" text-decoration="none" x="261" y="217.5">+first_name: string</text></g></g><g transform="translate(-190,-118) scale(1,1)"><g><path fill="none" stroke="none"/><text fill="#000000" stroke="none" font-family="Arial" font-size="13px" font-style="normal" font-weight="normal" text-decoration="none" x="261" y="232.5">+last_name: string</text></g></g><g transform="translate(-190,-118) scale(1,1)"><g><path fill="none" stroke="none"/><text fill="#000000" stroke="none" font-family="Arial" font-size="13px" font-style="normal" font-weight="normal" text-decoration="none" x="261" y="247.5">+phone: string</text></g></g><g transform="translate(-190,-118) scale(1,1)"><g><path fill="none" stroke="none"/><text fill="#000000" stroke="none" font-family="Arial" font-size="13px" font-style="normal" font-weight="normal" text-decoration="none" x="261" y="262.5">+email: string {unique}</text></g></g><g transform="translate(-190,-118) scale(1,1)"><g><path fill="none" stroke="none"/><text fill="#000000" stroke="none" font-family="Arial" font-size="13px" font-style="normal" font-weight="normal" text-decoration="none" x="261" y="277.5">#device_token: string</text></g></g><g transform="translate(-190,-118) scale(1,1)"><g><path fill="none" stroke="none"/><text fill="#000000" stroke="none" font-family="Arial" font-size="13px" font-style="normal" font-weight="normal" text-decoration="none" x="261" y="292.5">#password: string</text></g></g><g transform="translate(-190,-118) scale(1,1)"><g><path fill="none" stroke="none"/><text fill="#000000" stroke="none" font-family="Arial" font-size="13px" font-style="normal" font-weight="normal" text-decoration="none" x="261" y="315.5">+Register(user data)</text></g></g><g transform="translate(-190,-118) scale(1,1)"><g><path fill="none" stroke="none"/><text fill="#000000" stroke="none" font-family="Arial" font-size="13px" font-style="normal" font-weight="normal" text-decoration="none" x="261" y="330.5">+Login(email, password, device_token): token</text></g></g><g transform="translate(-190,-118) scale(1,1)"><rect fill="#C0C0C0" stroke="none" x="223" y="383" width="138.00341796875" height="72" opacity="0.2"/></g><g transform="translate(-190,-118) scale(1,1)"><rect fill="#ffffff" stroke="none" x="216" y="376" width="138.00341796875" height="72"/></g><g transform="translate(-190,-118) scale(1,1)"><path fill="none" stroke="#000000" d="M 216 376 L 354.00341796875 376 L 354.00341796875 448 L 216 448 L 216 376 Z Z" stroke-miterlimit="10"/></g><g transform="translate(-190,-118) scale(1,1)"><path fill="none" stroke="#000000" d="M 216 401 L 354.00341796875 401" stroke-miterlimit="10"/></g><g transform="translate(-190,-118) scale(1,1)"><path fill="none" stroke="#000000" d="M 216 424 L 354.00341796875 424" stroke-miterlimit="10"/></g><g transform="translate(-190,-118) scale(1,1)"><g><path fill="none" stroke="none"/><text fill="#000000" stroke="none" font-family="Arial" font-size="13px" font-style="normal" font-weight="bold" text-decoration="none" x="267.6630859375" y="395.5">User1</text></g></g><g transform="translate(-190,-118) scale(1,1)"><g><path fill="none" stroke="none"/><text fill="#000000" stroke="none" font-family="Arial" font-size="13px" font-style="normal" font-weight="normal" text-decoration="none" x="221" y="418.5">+gender: boolean</text></g></g><g transform="translate(-190,-118) scale(1,1)"><rect fill="#C0C0C0" stroke="none" x="375" y="383" width="151.7333984375" height="102" opacity="0.2"/></g><g transform="translate(-190,-118) scale(1,1)"><rect fill="#ffffff" stroke="none" x="368" y="376" width="151.7333984375" height="102"/></g><g transform="translate(-190,-118) scale(1,1)"><path fill="none" stroke="#000000" d="M 368 376 L 519.7333984375 376 L 519.7333984375 478 L 368 478 L 368 376 Z Z" stroke-miterlimit="10"/></g><g transform="translate(-190,-118) scale(1,1)"><path fill="none" stroke="#000000" d="M 368 401 L 519.7333984375 401" stroke-miterlimit="10"/></g><g transform="translate(-190,-118) scale(1,1)"><path fill="none" stroke="#000000" d="M 368 469 L 519.7333984375 469" stroke-miterlimit="10"/></g><g transform="translate(-190,-118) scale(1,1)"><g><path fill="none" stroke="none"/><text fill="#000000" stroke="none" font-family="Arial" font-size="13px" font-style="normal" font-weight="bold" text-decoration="none" x="426.528076171875" y="395.5">User2</text></g></g><g transform="translate(-190,-118) scale(1,1)"><g><path fill="none" stroke="none"/><text fill="#000000" stroke="none" font-family="Arial" font-size="13px" font-style="normal" font-weight="normal" text-decoration="none" x="373" y="418.5">+gender: boolean</text></g></g><g transform="translate(-190,-118) scale(1,1)"><g><path fill="none" stroke="none"/><text fill="#000000" stroke="none" font-family="Arial" font-size="13px" font-style="normal" font-weight="normal" text-decoration="none" x="373" y="433.5">+wilaya: Wilaya</text></g></g><g transform="translate(-190,-118) scale(1,1)"><g><path fill="none" stroke="none"/><text fill="#000000" stroke="none" font-family="Arial" font-size="13px" font-style="normal" font-weight="normal" text-decoration="none" x="373" y="448.5">+domain: Domain</text></g></g><g transform="translate(-190,-118) scale(1,1)"><g><path fill="none" stroke="none"/><text fill="#000000" stroke="none" font-family="Arial" font-size="13px" font-style="normal" font-weight="normal" text-decoration="none" x="373" y="463.5">+year_of_experience: int</text></g></g><g transform="translate(-190,-118) scale(1,1)"><rect fill="#C0C0C0" stroke="none" x="543" y="383" width="151.7333984375" height="102" opacity="0.2"/></g><g transform="translate(-190,-118) scale(1,1)"><rect fill="#ffffff" stroke="none" x="536" y="376" width="151.7333984375" height="102"/></g><g transform="translate(-190,-118) scale(1,1)"><path fill="none" stroke="#000000" d="M 536 376 L 687.7333984375 376 L 687.7333984375 478 L 536 478 L 536 376 Z Z" stroke-miterlimit="10"/></g><g transform="translate(-190,-118) scale(1,1)"><path fill="none" stroke="#000000" d="M 536 401 L 687.7333984375 401" stroke-miterlimit="10"/></g><g transform="translate(-190,-118) scale(1,1)"><path fill="none" stroke="#000000" d="M 536 469 L 687.7333984375 469" stroke-miterlimit="10"/></g><g transform="translate(-190,-118) scale(1,1)"><g><path fill="none" stroke="none"/><text fill="#000000" stroke="none" font-family="Arial" font-size="13px" font-style="normal" font-weight="bold" text-decoration="none" x="594.528076171875" y="395.5">User3</text></g></g><g transform="translate(-190,-118) scale(1,1)"><g><path fill="none" stroke="none"/><text fill="#000000" stroke="none" font-family="Arial" font-size="13px" font-style="normal" font-weight="normal" text-decoration="none" x="541" y="418.5">+address: Address</text></g></g><g transform="translate(-190,-118) scale(1,1)"><g><path fill="none" stroke="none"/><text fill="#000000" stroke="none" font-family="Arial" font-size="13px" font-style="normal" font-weight="normal" text-decoration="none" x="541" y="433.5">+wilaya: Willaya</text></g></g><g transform="translate(-190,-118) scale(1,1)"><g><path fill="none" stroke="none"/><text fill="#000000" stroke="none" font-family="Arial" font-size="13px" font-style="normal" font-weight="normal" text-decoration="none" x="541" y="448.5">+category: Category</text></g></g><g transform="translate(-190,-118) scale(1,1)"><g><path fill="none" stroke="none"/><text fill="#000000" stroke="none" font-family="Arial" font-size="13px" font-style="normal" font-weight="normal" text-decoration="none" x="541" y="463.5">+year_of_experience: int</text></g></g><g transform="translate(-190,-118) scale(1,1)"><rect fill="#C0C0C0" stroke="none" x="223" y="559" width="88.12353515625" height="72" opacity="0.2"/></g><g transform="translate(-190,-118) scale(1,1)"><rect fill="#ffffff" stroke="none" x="216" y="552" width="88.12353515625" height="72"/></g><g transform="translate(-190,-118) scale(1,1)"><path fill="none" stroke="#000000" d="M 216 552 L 304.12353515625 552 L 304.12353515625 624 L 216 624 L 216 552 Z Z" stroke-miterlimit="10"/></g><g transform="translate(-190,-118) scale(1,1)"><path fill="none" stroke="#000000" d="M 216 577 L 304.12353515625 577" stroke-miterlimit="10"/></g><g transform="translate(-190,-118) scale(1,1)"><path fill="none" stroke="#000000" d="M 216 615 L 304.12353515625 615" stroke-miterlimit="10"/></g><g transform="translate(-190,-118) scale(1,1)"><g><path fill="none" stroke="none"/><text fill="#000000" stroke="none" font-family="Arial" font-size="13px" font-style="normal" font-weight="bold" text-decoration="none" x="240.55859375" y="571.5">Wilaya</text></g></g><g transform="translate(-190,-118) scale(1,1)"><g><path fill="none" stroke="none"/><text fill="#000000" stroke="none" font-family="Arial" font-size="13px" font-style="normal" font-weight="normal" text-decoration="none" x="221" y="594.5">+ID: int {id}</text></g></g><g transform="translate(-190,-118) scale(1,1)"><g><path fill="none" stroke="none"/><text fill="#000000" stroke="none" font-family="Arial" font-size="13px" font-style="normal" font-weight="normal" text-decoration="none" x="221" y="609.5">+name: string</text></g></g><g transform="translate(-190,-118) scale(1,1)"><rect fill="#C0C0C0" stroke="none" x="599" y="167" width="294.0732421875" height="117" opacity="0.2"/></g><g transform="translate(-190,-118) scale(1,1)"><rect fill="#ffffff" stroke="none" x="592" y="160" width="294.0732421875" height="117"/></g><g transform="translate(-190,-118) scale(1,1)"><path fill="none" stroke="#000000" d="M 592 160 L 886.0732421875 160 L 886.0732421875 277 L 592 277 L 592 160 Z Z" stroke-miterlimit="10"/></g><g transform="translate(-190,-118) scale(1,1)"><path fill="none" stroke="#000000" d="M 592 185 L 886.0732421875 185" stroke-miterlimit="10"/></g><g transform="translate(-190,-118) scale(1,1)"><path fill="none" stroke="#000000" d="M 592 268 L 886.0732421875 268" stroke-miterlimit="10"/></g><g transform="translate(-190,-118) scale(1,1)"><g><path fill="none" stroke="none"/><text fill="#000000" stroke="none" font-family="Arial" font-size="13px" font-style="normal" font-weight="bold" text-decoration="none" x="706.882568359375" y="179.5">Notification</text></g></g><g transform="translate(-190,-118) scale(1,1)"><g><path fill="none" stroke="none"/><text fill="#000000" stroke="none" font-family="Arial" font-size="13px" font-style="normal" font-weight="normal" text-decoration="none" x="597" y="202.5">+ID: int {id}</text></g></g><g transform="translate(-190,-118) scale(1,1)"><g><path fill="none" stroke="none"/><text fill="#000000" stroke="none" font-family="Arial" font-size="13px" font-style="normal" font-weight="normal" text-decoration="none" x="597" y="217.5">+title: string</text></g></g><g transform="translate(-190,-118) scale(1,1)"><g><path fill="none" stroke="none"/><text fill="#000000" stroke="none" font-family="Arial" font-size="13px" font-style="normal" font-weight="normal" text-decoration="none" x="597" y="232.5">+description: string</text></g></g><g transform="translate(-190,-118) scale(1,1)"><g><path fill="none" stroke="none"/><text fill="#000000" stroke="none" font-family="Arial" font-size="13px" font-style="normal" font-weight="normal" text-decoration="none" x="597" y="247.5">+is_read: boolean = false</text></g></g><g transform="translate(-190,-118) scale(1,1)"><g><path fill="none" stroke="none"/><text fill="#000000" stroke="none" font-family="Arial" font-size="13px" font-style="normal" font-weight="normal" text-decoration="none" x="597" y="262.5">+notification_category: NotificationCategoryEnum</text></g></g><g transform="translate(-190,-118) scale(1,1)"><rect fill="#C0C0C0" stroke="none" x="335" y="559" width="118.4716796875" height="102" opacity="0.2"/></g><g transform="translate(-190,-118) scale(1,1)"><rect fill="#ffffff" stroke="none" x="328" y="552" width="118.4716796875" height="102"/></g><g transform="translate(-190,-118) scale(1,1)"><path fill="none" stroke="#000000" d="M 328 552 L 446.4716796875 552 L 446.4716796875 654 L 328 654 L 328 552 Z Z" stroke-miterlimit="10"/></g><g transform="translate(-190,-118) scale(1,1)"><path fill="none" stroke="#000000" d="M 328 577 L 446.4716796875 577" stroke-miterlimit="10"/></g><g transform="translate(-190,-118) scale(1,1)"><path fill="none" stroke="#000000" d="M 328 645 L 446.4716796875 645" stroke-miterlimit="10"/></g><g transform="translate(-190,-118) scale(1,1)"><g><path fill="none" stroke="none"/><text fill="#000000" stroke="none" font-family="Arial" font-size="13px" font-style="normal" font-weight="bold" text-decoration="none" x="360.861328125" y="571.5">Category</text></g></g><g transform="translate(-190,-118) scale(1,1)"><g><path fill="none" stroke="none"/><text fill="#000000" stroke="none" font-family="Arial" font-size="13px" font-style="normal" font-weight="normal" text-decoration="none" x="333" y="594.5">+ID: int {id}</text></g></g><g transform="translate(-190,-118) scale(1,1)"><g><path fill="none" stroke="none"/><text fill="#000000" stroke="none" font-family="Arial" font-size="13px" font-style="normal" font-weight="normal" text-decoration="none" x="333" y="609.5">+name: string</text></g></g><g transform="translate(-190,-118) scale(1,1)"><g><path fill="none" stroke="none"/><text fill="#000000" stroke="none" font-family="Arial" font-size="13px" font-style="normal" font-weight="normal" text-decoration="none" x="333" y="624.5">+description: string</text></g></g><g transform="translate(-190,-118) scale(1,1)"><g><path fill="none" stroke="none"/><text fill="#000000" stroke="none" font-family="Arial" font-size="13px" font-style="normal" font-weight="normal" text-decoration="none" x="333" y="639.5">+icon: string</text></g></g><g transform="translate(-190,-118) scale(1,1)"><rect fill="#C0C0C0" stroke="none" x="615" y="551" width="118.4716796875" height="102" opacity="0.2"/></g><g transform="translate(-190,-118) scale(1,1)"><rect fill="#ffffff" stroke="none" x="608" y="544" width="118.4716796875" height="102"/></g><g transform="translate(-190,-118) scale(1,1)"><path fill="none" stroke="#000000" d="M 608 544 L 726.4716796875 544 L 726.4716796875 646 L 608 646 L 608 544 Z Z" stroke-miterlimit="10"/></g><g transform="translate(-190,-118) scale(1,1)"><path fill="none" stroke="#000000" d="M 608 569 L 726.4716796875 569" stroke-miterlimit="10"/></g><g transform="translate(-190,-118) scale(1,1)"><path fill="none" stroke="#000000" d="M 608 637 L 726.4716796875 637" stroke-miterlimit="10"/></g><g transform="translate(-190,-118) scale(1,1)"><g><path fill="none" stroke="none"/><text fill="#000000" stroke="none" font-family="Arial" font-size="13px" font-style="normal" font-weight="bold" text-decoration="none" x="643.390869140625" y="563.5">Address</text></g></g><g transform="translate(-190,-118) scale(1,1)"><g><path fill="none" stroke="none"/><text fill="#000000" stroke="none" font-family="Arial" font-size="13px" font-style="normal" font-weight="normal" text-decoration="none" x="613" y="586.5">+ID: int {id}</text></g></g><g transform="translate(-190,-118) scale(1,1)"><g><path fill="none" stroke="none"/><text fill="#000000" stroke="none" font-family="Arial" font-size="13px" font-style="normal" font-weight="normal" text-decoration="none" x="613" y="601.5">+longitude: string</text></g></g><g transform="translate(-190,-118) scale(1,1)"><g><path fill="none" stroke="none"/><text fill="#000000" stroke="none" font-family="Arial" font-size="13px" font-style="normal" font-weight="normal" text-decoration="none" x="613" y="616.5">+latitude: string</text></g></g><g transform="translate(-190,-118) scale(1,1)"><g><path fill="none" stroke="none"/><text fill="#000000" stroke="none" font-family="Arial" font-size="13px" font-style="normal" font-weight="normal" text-decoration="none" x="613" y="631.5">+description: string</text></g></g><g transform="translate(-190,-118) scale(1,1)"><rect fill="#C0C0C0" stroke="none" x="479" y="559" width="118.4716796875" height="102" opacity="0.2"/></g><g transform="translate(-190,-118) scale(1,1)"><rect fill="#ffffff" stroke="none" x="472" y="552" width="118.4716796875" height="102"/></g><g transform="translate(-190,-118) scale(1,1)"><path fill="none" stroke="#000000" d="M 472 552 L 590.4716796875 552 L 590.4716796875 654 L 472 654 L 472 552 Z Z" stroke-miterlimit="10"/></g><g transform="translate(-190,-118) scale(1,1)"><path fill="none" stroke="#000000" d="M 472 577 L 590.4716796875 577" stroke-miterlimit="10"/></g><g transform="translate(-190,-118) scale(1,1)"><path fill="none" stroke="#000000" d="M 472 645 L 590.4716796875 645" stroke-miterlimit="10"/></g><g transform="translate(-190,-118) scale(1,1)"><g><path fill="none" stroke="none"/><text fill="#000000" stroke="none" font-family="Arial" font-size="13px" font-style="normal" font-weight="bold" text-decoration="none" x="508.838134765625" y="571.5">Domain</text></g></g><g transform="translate(-190,-118) scale(1,1)"><g><path fill="none" stroke="none"/><text fill="#000000" stroke="none" font-family="Arial" font-size="13px" font-style="normal" font-weight="normal" text-decoration="none" x="477" y="594.5">+ID: int {id}</text></g></g><g transform="translate(-190,-118) scale(1,1)"><g><path fill="none" stroke="none"/><text fill="#000000" stroke="none" font-family="Arial" font-size="13px" font-style="normal" font-weight="normal" text-decoration="none" x="477" y="609.5">+name: string</text></g></g><g transform="translate(-190,-118) scale(1,1)"><g><path fill="none" stroke="none"/><text fill="#000000" stroke="none" font-family="Arial" font-size="13px" font-style="normal" font-weight="normal" text-decoration="none" x="477" y="624.5">+description: string</text></g></g><g transform="translate(-190,-118) scale(1,1)"><g><path fill="none" stroke="none"/><text fill="#000000" stroke="none" font-family="Arial" font-size="13px" font-style="normal" font-weight="normal" text-decoration="none" x="477" y="639.5">+icon: string</text></g></g><g transform="translate(-190,-118) scale(1,1)"><rect fill="#C0C0C0" stroke="none" x="719" y="343" width="172.95361328125" height="143" opacity="0.2"/></g><g transform="translate(-190,-118) scale(1,1)"><rect fill="#00a9ff" stroke="none" x="712" y="336" width="172.95361328125" height="143"/></g><g transform="translate(-190,-118) scale(1,1)"><path fill="none" stroke="#000000" d="M 712 336 L 884.95361328125 336 L 884.95361328125 479 L 712 479 L 712 336 Z Z" stroke-miterlimit="10"/></g><g transform="translate(-190,-118) scale(1,1)"><path fill="none" stroke="#000000" d="M 712 457 L 884.95361328125 457" stroke-miterlimit="10"/></g><g transform="translate(-190,-118) scale(1,1)"><path fill="none" stroke="#000000" d="M 712 374 L 884.95361328125 374" stroke-miterlimit="10"/></g><g transform="translate(-190,-118) scale(1,1)"><g><path fill="none" stroke="none"/><text fill="#000000" stroke="none" font-family="Arial" font-size="13px" font-style="normal" font-weight="normal" text-decoration="none" x="755.11279296875" y="353.5">«enumeration»</text></g></g><g transform="translate(-190,-118) scale(1,1)"><g><path fill="none" stroke="none"/><text fill="#000000" stroke="none" font-family="Arial" font-size="13px" font-style="normal" font-weight="bold" text-decoration="none" x="722.96826171875" y="368.5">NotificationCategoryEnum</text></g></g><g transform="translate(-190,-118) scale(1,1)"><g><path fill="none" stroke="none"/><text fill="#000000" stroke="none" font-family="Arial" font-size="13px" font-style="normal" font-weight="normal" text-decoration="none" x="717" y="474.5">+values(): array</text></g></g><g transform="translate(-190,-118) scale(1,1)"><g><path fill="none" stroke="none"/><text fill="#000000" stroke="none" font-family="Arial" font-size="13px" font-style="normal" font-weight="normal" text-decoration="none" x="717" y="391.5">ALERT</text></g></g><g transform="translate(-190,-118) scale(1,1)"><g><path fill="none" stroke="none"/><text fill="#000000" stroke="none" font-family="Arial" font-size="13px" font-style="normal" font-weight="normal" text-decoration="none" x="717" y="406.5">WARNING</text></g></g><g transform="translate(-190,-118) scale(1,1)"><g><path fill="none" stroke="none"/><text fill="#000000" stroke="none" font-family="Arial" font-size="13px" font-style="normal" font-weight="normal" text-decoration="none" x="717" y="421.5">INFO</text></g></g><g transform="translate(-190,-118) scale(1,1)"><g><path fill="none" stroke="none"/><text fill="#000000" stroke="none" font-family="Arial" font-size="13px" font-style="normal" font-weight="normal" text-decoration="none" x="717" y="436.5">SUCCESS</text></g></g><g transform="translate(-190,-118) scale(1,1)"><g><path fill="none" stroke="none"/><text fill="#000000" stroke="none" font-family="Arial" font-size="13px" font-style="normal" font-weight="normal" text-decoration="none" x="717" y="451.5">ERROR</text></g></g><g transform="translate(-190,-118) scale(1,1)"><rect fill="#C0C0C0" stroke="none" x="767" y="535" width="104.36083984375" height="113" opacity="0.2"/></g><g transform="translate(-190,-118) scale(1,1)"><rect fill="#ff00ff" stroke="none" x="760" y="528" width="104.36083984375" height="113"/></g><g transform="translate(-190,-118) scale(1,1)"><path fill="none" stroke="#000000" d="M 760 528 L 864.36083984375 528 L 864.36083984375 641 L 760 641 L 760 528 Z Z" stroke-miterlimit="10"/></g><g transform="translate(-190,-118) scale(1,1)"><path fill="none" stroke="#000000" d="M 760 619 L 864.36083984375 619" stroke-miterlimit="10"/></g><g transform="translate(-190,-118) scale(1,1)"><path fill="none" stroke="#000000" d="M 760 566 L 864.36083984375 566" stroke-miterlimit="10"/></g><g transform="translate(-190,-118) scale(1,1)"><g><path fill="none" stroke="none"/><text fill="#000000" stroke="none" font-family="Arial" font-size="13px" font-style="normal" font-weight="normal" text-decoration="none" x="768.81640625" y="545.5">«enumeration»</text></g></g><g transform="translate(-190,-118) scale(1,1)"><g><path fill="none" stroke="none"/><text fill="#000000" stroke="none" font-family="Arial" font-size="13px" font-style="normal" font-weight="bold" text-decoration="none" x="767.0263671875" y="560.5">UserTypeEnum</text></g></g><g transform="translate(-190,-118) scale(1,1)"><g><path fill="none" stroke="none"/><text fill="#000000" stroke="none" font-family="Arial" font-size="13px" font-style="normal" font-weight="normal" text-decoration="none" x="765" y="636.5">+values(): array</text></g></g><g transform="translate(-190,-118) scale(1,1)"><g><path fill="none" stroke="none"/><text fill="#000000" stroke="none" font-family="Arial" font-size="13px" font-style="normal" font-weight="normal" text-decoration="none" x="765" y="583.5">User1</text></g></g><g transform="translate(-190,-118) scale(1,1)"><g><path fill="none" stroke="none"/><text fill="#000000" stroke="none" font-family="Arial" font-size="13px" font-style="normal" font-weight="normal" text-decoration="none" x="765" y="598.5">User2</text></g></g><g transform="translate(-190,-118) scale(1,1)"><g><path fill="none" stroke="none"/><text fill="#000000" stroke="none" font-family="Arial" font-size="13px" font-style="normal" font-weight="normal" text-decoration="none" x="765" y="613.5">User3</text></g></g><g transform="translate(-190,-118) scale(1,1)"><path fill="none" stroke="#000000" d="M 309 375 L 334 336" stroke-miterlimit="10"/></g><g transform="translate(-190,-118) scale(1,1)"><path fill="#FFFFFF" stroke="none" d="M 330.11890785661365 357.6549561018845 L 334 336 L 315.94328712106216 348.56801973294125"/></g><g transform="translate(-190,-118) scale(1,1)"><path fill="none" stroke="#000000" d="M 330.11890785661365 357.6549561018845 L 334 336 L 315.94328712106216 348.56801973294125 L 330.11890785661365 357.6549561018845" stroke-miterlimit="10"/></g><g transform="translate(-190,-118) scale(1,1)"><path fill="none" stroke="#000000" d="M 428 375 L 417 336" stroke-miterlimit="10"/></g><g transform="translate(-190,-118) scale(1,1)"><path fill="#FFFFFF" stroke="none" d="M 430.62042078850044 353.27669347833046 L 417 336 L 414.414624787154 357.8475590171717"/></g><g transform="translate(-190,-118) scale(1,1)"><path fill="none" stroke="#000000" d="M 430.62042078850044 353.27669347833046 L 417 336 L 414.414624787154 357.8475590171717 L 430.62042078850044 353.27669347833046" stroke-miterlimit="10"/></g><g transform="translate(-190,-118) scale(1,1)"><path fill="none" stroke="#000000" d="M 548 375 L 500 336" stroke-miterlimit="10"/></g><g transform="translate(-190,-118) scale(1,1)"><path fill="#FFFFFF" stroke="none" d="M 521.0837701755592 342.28288430453745 L 500 336 L 510.4658067669676 355.3511469612655"/></g><g transform="translate(-190,-118) scale(1,1)"><path fill="none" stroke="#000000" d="M 521.0837701755592 342.28288430453745 L 500 336 L 510.4658067669676 355.3511469612655 L 521.0837701755592 342.28288430453745" stroke-miterlimit="10"/></g></g></svg>